# xmcd
#
# Track frame offsets:
#	150
#	12340
#	25262
#	42340
#	53917
#	66587
#	79562
#	91100
#	101925
#	114457
#	125407
#	139842
#	155762
#	182995
#	193065
#	219827
#	236487
#	253317
#	274910
#	292512
#
# Disc length: 4192 seconds
#
# Revision: 1
# Processed by: cddbd v1.5.1PL0 Copyright (c) Steve Scherf et al.
# Submitted via: audiograbber 1.83.01
#
DISCID=24105e14
DTITLE=The Mad Lads - The Mad, Mad, Mad, Mad, Mad Lads - A New Beginning
DYEAR=1990
DGENRE=R&B
TTITLE0=So Nice
TTITLE1=Make Room
TTITLE2=Cry Baby
TTITLE3=I Just Can't Forget
TTITLE4=These Old Memories
TTITLE5=By The Time I Get To Phoenix
TTITLE6=No Strings Attached
TTITLE7=It's Loving Time
TTITLE8=Love Is Here Today And Gone Tomorrow
TTITLE9=Make This Young Lady Mine
TTITLE10=I've Never Found a Girl (To Love Me Like You Do) 
TTITLE11=Monkey Time '69
TTITLE12=Pass The Word (Love's The Word)
TTITLE13=I'm So Glad I Fell In Love With You
TTITLE14=Seeing Is Believing
TTITLE15=I'll Still Be Loving You
TTITLE16=Gone, The Promises Of Yesterday
TTITLE17=I Forgot To Be Your Lover
TTITLE18=I'm Afraid (Of Losing You)
TTITLE19=Destination
EXTD=
EXTT0=
EXTT1=
EXTT2=
EXTT3=
EXTT4=
EXTT5=
EXTT6=
EXTT7=
EXTT8=
EXTT9=
EXTT10=
EXTT11=
EXTT12=
EXTT13=
EXTT14=
EXTT15=
EXTT16=
EXTT17=
EXTT18=
EXTT19=
PLAYORDER=
